<svg xmlns="http://www.w3.org/2000/svg" version="1.1" xmlns:xlink="http://www.w3.org/1999/xlink" xmlns:svgjs="http://svgjs.dev/svgjs" viewBox="0 0 800 800"><defs><linearGradient x1="50%" y1="0%" x2="50%" y2="100%" id="ssscribble-grad"><stop stop-color="hsl(206, 75%, 49%)" stop-opacity="1" offset="0%"></stop><stop stop-color="hsl(331, 90%, 56%)" stop-opacity="1" offset="100%"></stop></linearGradient></defs><g fill="none" stroke-width="1.5" stroke="url(#ssscribble-grad)" stroke-linecap="round"><path d="M690.26 271.89C848.47 314.46 753.32 348.1 684.45 362.43 923.23 387.14 1038.81 428.83 907.3 495.82 661.64 584.22 531.41 695.51 585.98 817.08 753.88 922.7 880.43 996.47 891.34 1014.1 792.57 972.06 640.54 876.1 500.34 755.84 381.08 663.85 309.77 633.01 269.04 687.51 244.05 813.96 221.32 965.82 188.46 1077.4 155.6 1098.22 114.16 1018.39 77.18 878.02 55.94 732.93 67.47 637.71 129.78 618.03 213.04 673.72 310.95 772.32 359.07 873.11 297.52 952.58 123.78 980.62 -87.17 956.54 -184.8 888.92 -93.54 793.6 117.89 691.12 215.18 585.51 70.14 494.5 -192.72 421.8 -262.91 359.34 -51.66 311.51 154 272.96 40.65 238.3 -241.05 205.86 -261.73 173 14.66 140.14 150.78 108.41 -43.01 81.1 -270.57 57.67 -198.26 45.72 65.89 51.23 199.44 66.98 65.9 103.86 -141.92 158.83 -200.51 210.66 -46.09 258.81 172.1 283.37 308.51 264.4 290.95 197.41 183.51 83.73 51.88 -51.27 -16.7 -179.34 -12.12 -259.13 48.38 -263.56 137.13 -187.05 220.31 -54.65 309.3 73.04 372.82 146.22 405.68 125.43 438.54 13.86 439.18 -131.32 412.17 -245.11 390.97 -286.95 361.99 -237.42 358.42 -121.35 410.79 22.98 533.5 148.42 715.77 224.69 873.87 241.29 938.6 206.49 845.26 143.94 670.13 65.45 554.67 1.33 647.48 -36.42 889.52 -52.77 1052.54 -40.36 943.08 -8.12 703 38.07 649.39 90.67 889.63 141.04 1096.12 194.26 966.66 239.03 690.26 271.89Q690.26 271.89 690.26 271.89" opacity="0.77"></path><path d="M656.26 180.79C662.51 211.3 912.34 237.75 1059.81 262.72 918.53 291.09 665.04 324.45 588.66 368.7 751.82 423.94 953.03 496.93 985.9 588.53 824.47 686.49 607.89 790.62 488.3 885.06 515.58 949.99 638.91 974.51 760.25 946.46 833.8 876.07 821.69 773.86 752.9 670.09 645.54 606.89 539.17 604.97 454.87 675.91 372.62 801.64 316.65 941.9 286.14 1043.4 255.63 1066.22 252.01 1000.75 276.72 876.85 303.47 737.66 354.33 629.5 408.81 580.4 424.72 598.42 386.58 667 266 756.67 14.07 879.69 33.02 890.76 252.88 792.95 188.24 705 -40.33 617 -225.86 537.82 -171.84 460.49 64.27 396.26 193.77 344.94 34.52 295.79 -221.48 256.27 -227.73 225.75 27.91 195.24 188.06 175.18 52.94 166.78 -191.61 160.55 -227.87 169.27 -23.84 193.72 198.35 220.01 216.3 257.76 53.08 298.69 -127.49 323.79 -153.29 331.35 -21.86 307.33 181.16 245.69 330.03 147.42 376.38 23.67 328.32 -97.76 238.39 -193.72 160.27 -234.11 96.57 -207.4 76.79 -116.61 88.21 10.78 112.97 122.92 146.11 182.22 176.62 159.43 207.13 57.95 233.58 -76.12 266.36 -190.08 312.49 -249.27 387.78 -230 504.36 -144.45 635.36 -18.31 775.54 111.26 870.62 213.43 871.3 273.26 766.24 284.93 603.21 260.01 511.77 205.56 573.75 145.24 786.1 94.31 981.1 49.73 990.51 26.99 790.67 24.63 609.01 33.25 662.64 55.39 918.98 84.56 1065.87 117.14 911.9 150.27 656.26 180.79Q656.26 180.79 656.26 180.79" opacity="0.67"></path><path d="M622.26 195.13C615.81 223.3 835.96 256.98 1014.61 297.22 955.85 339.82 724.51 392.99 557.67 458.56 597.75 528.74 783.33 611.12 933.91 700.87 935.11 783.88 786.12 858.51 597.42 910.66 459.98 930.36 433.42 911.09 490.21 850.98 596.89 768.21 688.9 673.87 738.64 594.71 755.61 561.4 734.46 584.82 696.66 667.51 647.91 789.65 604.74 917.74 576.57 1009.4 548.4 1033.68 536.58 981.58 532.21 874.77 516.89 745.55 486.8 631.51 421.01 559.91 322.47 542.95 184.07 576.36 33.97 641.76 -66.21 726.57 -80.09 802.42 20.42 854.25 172.2 881.86 287.8 876.77 257.27 845.9 77.37 794.87 -133.46 732.28 -194.19 667.9 -48 598.5 167.3 535.79 215.19 483.59 25.67 431.37 -200.18 390.5 -193.73 362.33 128.69 327.1 -151.09 323.94 -108.64 350.26 195.07 373.93 -4.89 359.46 -114.99 277.27 -22.27 188.53 141.25 79.29 294.69 -34.84 403.69 -129.57 441.61 -188.25 432.5 -191.96 388.55 -141.01 344.82 -43.01 320.49 75.32 296.02 171.28 297.55 217.68 325.71 193.43 353.88 101.79 407.35 -20.59 484.95 -131.87 562.4 -203.7 657.36 -211.11 750.13 -157.16 808.05 -57.36 816.52 62.23 750.93 174.33 640.9 263.78 517.81 316.45 462 333.67 533.68 318.44 717.75 284.24 913.04 244.64 974.9 198.3 852.44 162.3 643.22 140.93 629.44 123.22 941.83 156.31 622.26 195.13Q622.26 195.13 622.26 195.13" opacity="0.31"></path><path d="M588.26 308.04C570.93 333.86 758.42 370.51 952.01 417.28 970.41 464.68 797.22 522.77 591.38 589.61 509.33 654.75 598.66 723.6 765.49 788.82 896.39 840.04 899.73 874.14 790.54 881.68 621.24 862.51 473.63 812.96 389.55 738.04 372.56 658.38 407.46 583.06 459.07 533 523.96 528.09 568.85 572.12 587.58 661.8 601.49 777.81 593.88 893.32 568.06 975.4 542.24 1000.6 499.44 960.78 436.83 871.18 369.41 755.19 277.55 641.92 167.92 555.72 71.56 509.82 -5.85 508.15 -28.66 541.79 15.62 603.95 126.16 673.5 261.62 735.39 336.97 788.55 303.02 818.67 145.24 825.85 -48.47 816.15 -160.96 789.48 -97.82 753.13 89.07 708.73 247.57 663.14 219.2 621.59 15.65 578.47 -177.06 542.84 -159.73 517.02 145.01 483.8 -61.51 463 -154.13 461.96 10.08 453.58 212.38 437.73 315.74 407.65 272.54 360.68 134.28 293.49 0.71 206.49 -68.57 110.77 -37.38 10.6 62.19 -78.43 201.09 -138.97 328.67 -160.47 422.54 -133.5 490.6 -66.24 527.12 32.32 548.29 138.34 559.86 217.99 574.68 252.59 600.5 227.42 626.32 145.36 661.92 35.08 699.04 -70.96 726.56 -150.69 737.01 -180.04 713.69 -156.21 664.58 -87.24 579.52 11.23 480.41 117.77 420.62 219.58 426.5 299.75 529.63 352.77 781.47 380.55 769.95 332.02 535.08 298.46 653.98 270.8 890.4 275.34 588.26 308.04Q588.26 308.04 588.26 308.04" opacity="0.21"></path><path d="M554.21 465.19C528.02 488.66 681.44 522.27 874.43 564.22 955.5 605.32 860.65 652.74 670.47 702.57 509.24 746.95 475.47 787.17 564.15 816.54 716.63 831.31 835.04 826.92 867.37 799.34 809.61 755.57 690.2 693.29 558.53 620.78 434.87 556.85 351.7 507.52 307.11 487.3 291.15 507.04 292.72 566.17 294.95 658.23 303.35 765.93 298.57 868.63 275.1 941.41 251.63 966.98 210.57 938.22 157.91 865.46 111.41 765.05 67.14 658.42 42.42 565.82 46.34 499.3 90.85 467.31 178.34 467.88 273.83 498.49 359.54 546.27 386.53 599.09 323.45 656.12 177.2 702.25 0.29 733.16 -112.83 754.84 -100.11 760.4 43.91 753.05 216.88 738.63 298.37 716.87 208.24 691.97 6.19 665.08 -151.97 638.89 -125.78 615.41 64.38 591.94 250.16 572.31 281.97 554.93 143.47 535.57 -43.73 514.63 -137.49 488.37 -79.64 455.04 88.88 410.83 260.6 352.97 355.12 285.88 336.06 206.05 240.84 118.26 113.36 34.67 20.58 -40.92 -12.25 -95.98 11.27 -120.99 79.78 -110.05 164.51 -60.73 262.34 14.66 346.64 107.93 410.12 199.28 470.8 262.97 512.38 286.98 535.85 261.41 559.33 188.63 563.59 90.68 547.18 -7.95 527.98 -90.95 486.38 -136.72 429.23 -139.26 385.18 -101.84 355.3 -31.45 367.93 56.91 436.92 153.86 563.38 243.97 721.62 318.5 847.63 376.85 894.55 414.94 824.5 436.34 677.24 443.14 529.73 441.58 489.05 437.88 700.26 426.36 834.95 435.59 554.26 465.18Q554.21 465.19 554.21 465.19" opacity="0.21"></path><path d="M520.81 590.85C486.83 611.98 605.55 637.89 784.42 666.77 908.25 694.18 894.88 721.64 763.22 745.44 523.41 767.83 562.94 738.72 734.04 677.83 807.02 626.99 813.76 569.15 766.81 512.88 679.48 472.64 579.56 451.64 488.37 458.54 400.35 497.52 333.81 565.87 286.89 656.07 245 753.66 215.07 843.51 193.95 907.3 172.82 932.71 161.5 913.66 163.55 856.93 170.63 773.51 198.74 678.25 250.15 586.94 304.74 509.27 369.87 455.17 424.64 426.99 439.03 424.63 401.96 442.55 301.29 472.83 162.55 514.96 17.41 556.79 -74.82 592.4 -69.18 626.88 38.11 650.29 199.32 662.13 315.49 670.26 316.84 668.57 184.85 658.88 -2.16 647.77 -125.16 631.18 -91.18 610.05 77.23 588.93 256.66 564.27 326.98 535.55 249.85 505.4 86.62 468.67 -55.04 423.93 -100.81 375.48 -25.5 317.29 121.64 250.24 279.68 182.08 381.47 109.92 405.74 40.1 358.14 -17.86 272 -60.84 185.23 -80.48 107.47 -74.31 66.06 -39.16 58.48 23.01 73.84 98.83 106.88 182.06 143.77 257.34 186.25 305.93 220.76 320.71 241.88 295.32 263.01 231.54 269.75 145.98 267.1 56.53 270.06 -25.51 275.45 -81.85 296.7 -105.35 340.89 -96.77 417.08 -56.83 527.4 5.39 646.73 83.65 763.2 166.54 838.49 245.08 841.91 318.53 765.17 379.11 629.12 426.06 503.97 462.69 447.6 488.53 508.86 507.22 753.64 525.52 776.81 562.06 520.81 590.85Q520.81 590.85 520.81 590.85" opacity="0.14"></path><path d="M486.2 624.86C448.27 643.63 535.14 660.56 689.38 674.61 831.71 687.42 884.45 695.04 830.25 695.41 696.61 691.89 545.01 678.45 433.05 654 388.98 625.35 418.03 586.86 493.13 541.41 593.74 499.29 680.18 458.82 734.26 426.98 758.53 413.05 747.53 418.31 714.43 446.88 664.29 498.64 610.89 570.42 564.55 655.03 515.71 741.17 480.26 818.31 461.48 873.43 442.7 898.12 441.48 887.35 454.91 845.4 465.84 779.37 485.08 698.86 502.67 615.4 503.23 535.96 483.31 469.83 430.1 421.38 347.08 391.35 233.69 379.54 108.46 382.05 8.75 398.29 -42.55 420.95 -18.03 444.71 74.36 472.91 209.12 496.42 329 512.64 369.43 528.72 306.01 536.24 156.43 534.78 -5.05 532.87 -95.72 522.62 -57.79 503.84 88.18 485.06 255.74 458.64 353.71 425.14 337.16 391.19 223.86 349.51 79.83 300.88 -33.43 252.12 -61.88 197.69 -4.09 140.55 116.65 87.85 253.57 38.24 366.02 -2.61 437.74 -29.73 456.86 -40.19 437.14 -29.7 386.45 -0.8 329.03 48.47 280.66 114.15 233.4 183.84 205.22 253.66 195.55 312.45 189.29 347.16 196.58 354.12 215.36 329.43 234.13 274.31 263.5 200.97 305.17 122.08 350.24 44.72 412.57 -16.37 492.37 -54.37 573.28 -69.17 661.63 -57.6 741.27 -24.11 789.95 27.27 797.81 90 750.72 156.73 662.9 226.8 548.24 292.24 447.02 349.84 408.76 403.23 454.02 447.59 581.03 483.66 738.82 515.83 862.83 542.36 886.68 564.97 796 586.33 632.26 606.07 486.25 624.85Q486.2 624.86 486.2 624.86" opacity="0.95"></path><path d="M452.25 550.53C472.94 583.39 738.24 589.76 845.01 567.36 669.61 540.27 428.55 484.34 342.82 417.39 426.75 380.3 559.31 382.43 633.75 450.49 673.4 576.22 658.2 727.85 625.34 839.42 592.48 860.21 545.07 779.84 448.47 646.45 317.08 503.78 133.23 397.89 6.23 342.77 152 339.67 136.25 381.02 -23.74 347.53 252.65 314.67 393.28 253.32 234.63 174.92 8.55 104.82 5.18 38.77 180.08 6.19 393.82 18.24 502.34 89.27 522.46 207.86 489.54 317.16 469.2 384.21 502.06 363.42 534.92 251.85 617.87 113.54 707.74 11.9 744.57 -32.06 687.33 0.64 516.66 80.8 384.83 190.83 423.06 298.04 673.23 382.07 855.96 461.42 728.65 517.67 452.25 550.53Q452.25 550.53 452.25 550.53" opacity="0.47"></path><path d="M418.21 403.85C596.22 402.19 302.81 357.14 344.91 466.85 409.02 585.96 435.86 713.75 407.69 805.41 379.53 829.69 299.02 776.7 186.1 675.49 97.69 552.12 48.72 440.1 111.98 358.93 256.17 304.82 413.25 277.53 416.9 262.21 226.32 256.89 3.84 244.61 10.21 216.45 244.41 188.28 422.32 146.9 373.54 103.4 171.64 69.91 30.92 53.24 41.69 70.43 172.95 114.68 332.35 196.82 446.91 299.53 538.45 380.11 587.81 421.68 615.98 397.43 644.15 305.78 648.47 189.4 605.75 90.92 540.03 23.09 424.57 10.48 330.2 41.95 356.32 104.66 526.88 181.01 749.44 249.81 818.91 321.88 652.48 375.67 418.26 403.84Q418.21 403.85 418.21 403.85" opacity="0.92"></path><path d="M384.21 255.26C358.02 278.73 503.97 284.5 679.92 278.95 772.51 279.4 721.13 280.81 590.73 296.03 432.33 334.07 316.91 399.93 254.41 492.36 218.84 596.16 200.47 698.63 177 771.41 153.52 796.98 127.17 767.05 122.07 697.88 143.89 603.72 222.69 505.31 350.32 420.61 449.95 346.04 476.43 291.43 366.64 253.52 173.48 222.43 18.02 197.18 44.21 173.71 326.96 140.5 282.16 127.4 100.79 180.19 68.22 234.13 113.96 307.63 184.96 384.58 274.88 436.56 340.67 456.98 364.14 431.43 387.64 358.66 366.58 265.7 317.33 179.1 287 103.86 277.87 62.89 341.18 55.61 475.54 71.15 655.96 106.38 777.76 146.6 750.05 192.83 574.45 231.78 384.26 255.25Q384.21 255.26 384.21 255.26" opacity="0.74"></path><path d="M350.48 176.26C312.2 195.04 393.51 210.57 530.01 226.18 664.43 246.45 727.75 274.94 716.04 316.61 647.78 370.02 555.92 440.46 476.77 522.67 395.68 605.17 343.05 682.23 324.27 737.36 305.49 762.06 322.34 750.01 370.89 709.53 417.5 648.09 480.06 576.14 523.7 506.69 510.8 436.54 427.57 377.17 279.39 332.2 129.12 289.7 40.2 258.56 78.48 239.79 224.65 221.01 390.51 216.36 490.04 226.32 494.31 238.76 420.45 268.82 324.52 314.35 223.27 359.2 162.3 411.22 142.42 458.91 139.26 485.62 154.22 490.06 173 465.36 191.77 410.23 212.59 340.79 248.3 272.04 300.72 203.59 390.99 153.08 516.85 124.28 637.39 107.22 731.17 108.04 740.66 120.31 654.9 137.23 496.65 157.48 350.48 176.26Q350.48 176.26 350.48 176.26" opacity="0.53"></path><path d="M316.21 204.97C309.84 233.14 502.64 291.5 638.44 381.4 680.61 484.55 627.77 611.75 599.61 703.41 571.44 727.68 573.28 672.82 494.19 590.28 321.47 490.49 105.84 411.18 112.21 383.02 346.44 354.85 526.72 383.15 529.65 446.03 419.01 491.65 337.97 523.68 366.14 499.41 394.3 407.75 526.34 303.38 673.9 237.15 707.89 184.17 550.44 176.8 316.21 204.97Q316.21 204.97 316.21 204.97" opacity="0.07"></path><path d="M282.26 327.45C336.41 365.01 574.93 537.05 537.38 669.4 499.82 684.63 200.41 571.92 146.26 534.36 461.35 496.81 579.01 548.63 616.57 533.4 654.12 401.05 597.35 289.9 282.26 327.45Q282.26 327.45 282.26 327.45" opacity="0.60"></path></g></svg>