<svg xmlns="http://www.w3.org/2000/svg" version="1.1" xmlns:xlink="http://www.w3.org/1999/xlink" xmlns:svgjs="http://svgjs.dev/svgjs" viewBox="0 0 800 800"><defs><filter id="ssspot-filter" x="-20%" y="-20%" width="140%" height="140%" filterUnits="objectBoundingBox" primitiveUnits="userSpaceOnUse" color-interpolation-filters="sRGB">
	<feTurbulence type="turbulence" baseFrequency="0.022 0.218" numOctaves="2" seed="194" stitchTiles="stitch" x="0%" y="0%" width="100%" height="100%" result="turbulence"></feTurbulence>
	<feGaussianBlur stdDeviation="0 3" x="0%" y="0%" width="100%" height="100%" in="turbulence" edgeMode="duplicate" result="blur"></feGaussianBlur>
	<feDisplacementMap in="SourceGraphic" in2="blur" scale="32" xChannelSelector="R" yChannelSelector="B" x="0%" y="0%" width="100%" height="100%" result="displacementMap"></feDisplacementMap>
</filter></defs><rect width="100%" height="100%" fill="hsl(182, 100%, 9%)"></rect><g fill="hsl(70, 83%, 16%)" filter="url(#ssspot-filter)"><circle r="6.889972602606562" cx="74.66102190158983" cy="18.320968156314883" opacity="0.8939438566199229"></circle><circle r="9.852031377965757" cx="505.65234055316233" cy="261.03576361169496" opacity="0.5195662299581135"></circle><circle r="5.756769288880908" cx="16.568724842167615" cy="528.1002819425782" opacity="0.9706079414144885"></circle><circle r="3.477898841313819" cx="10.047720354433554" cy="667.1812738433792" opacity="0.425133429977405"></circle><circle r="7.612259089816538" cx="358.3522902139219" cy="25.22685806868037" opacity="0.2770472582549496"></circle><circle r="7.335304595549469" cx="167.02578832994016" cy="129.57597866432695" opacity="0.7639870599945554"></circle><circle r="8.124946613706692" cx="255.31067198451535" cy="32.531166221957164" opacity="0.3598881801661804"></circle><circle r="6.177539650974639" cx="113.22776544941152" cy="695.8444612666445" opacity="0.8202444267970538"></circle><circle r="7.695445234913637" cx="117.67188510794976" cy="536.7415869991651" opacity="0.19360781715394"></circle><circle r="7.820971168648489" cx="566.5568259083423" cy="404.1942181806385" opacity="0.28868698394830783"></circle><circle r="5.353157250382506" cx="506.1851899722006" cy="725.6654811783138" opacity="0.9635023059446601"></circle><circle r="10.984067991601556" cx="639.5776985293235" cy="109.615180009026" opacity="0.3187598841259327"></circle><circle r="7.0810161309069475" cx="65.58450562272355" cy="449.120085073889" opacity="0.5149054781056098"></circle><circle r="6.7584231720342585" cx="528.3782103624185" cy="552.7303298903903" opacity="0.4925878185621979"></circle><circle r="6.113402686243514" cx="784.0302946104068" cy="164.80172093776886" opacity="0.13354348820440526"></circle><circle r="6.092730518632607" cx="247.21643853703685" cy="347.24095685714144" opacity="0.556562036870772"></circle><circle r="4.644007161731253" cx="49.28980796043853" cy="168.77700983863832" opacity="0.601069516665642"></circle><circle r="7.600129719439868" cx="701.3846764005641" cy="78.05544493165209" opacity="0.6216961023857605"></circle><circle r="7.150501207640839" cx="734.1527165661973" cy="709.8839220152798" opacity="0.815195765723488"></circle><circle r="3.8646888047218044" cx="233.63050613405167" cy="374.4546982040581" opacity="0.1615594223974266"></circle><circle r="7.296727593338378" cx="622.979720835346" cy="211.68306130281195" opacity="0.6142831963666096"></circle><circle r="7.871091233182064" cx="553.0169034192945" cy="149.11336135436756" opacity="0.24426620903546375"></circle><circle r="4.895155162689242" cx="28.305924510449987" cy="689.2399588536135" opacity="0.7408046758856804"></circle><circle r="8.111619545821656" cx="369.6183469162703" cy="484.18902633070707" opacity="0.7329635583009332"></circle><circle r="8.356690421832077" cx="295.7117522026276" cy="487.47455799943805" opacity="0.740268326957222"></circle><circle r="8.16686786787607" cx="753.2689138275333" cy="114.33842910735868" opacity="0.7228578305391353"></circle><circle r="9.589399125792433" cx="451.0572595830207" cy="328.8173897023924" opacity="0.9649902860401743"></circle><circle r="7.873503198682004" cx="331.39394427671033" cy="609.9900166686635" opacity="0.7985520999303432"></circle><circle r="9.358746170097477" cx="154.68988235618747" cy="82.34777041016171" opacity="0.6334013305057249"></circle><circle r="9.449889994536765" cx="408.01746768608155" cy="171.01213146753554" opacity="0.6675884769590836"></circle><circle r="5.214197133703986" cx="708.4547496902704" cy="569.4197301505701" opacity="0.8011641747718703"></circle><circle r="5.003308901063731" cx="149.84192366209194" cy="263.93926469430016" opacity="0.5605848177309499"></circle><circle r="10.661231492773409" cx="127.43493953844869" cy="214.59691969580683" opacity="0.8389058097786427"></circle><circle r="5.769567929221852" cx="404.7537561459311" cy="634.0273593633389" opacity="0.13995087510627902"></circle><circle r="5.574020231346935" cx="35.13479161566462" cy="95.66610424032218" opacity="0.3774786607084921"></circle><circle r="8.245282216307245" cx="774.1697070861119" cy="736.8351077289716" opacity="0.2686408000759697"></circle><circle r="4.087572931923877" cx="484.16961951697124" cy="781.8615350415511" opacity="0.5882024148447214"></circle><circle r="7.85190484281928" cx="268.5219304697954" cy="434.5399339617501" opacity="0.5967281469728745"></circle><circle r="6.837845741108969" cx="164.0943401268968" cy="180.724703786232" opacity="0.4370671867599304"></circle><circle r="5.31008785527243" cx="81.78912243729731" cy="755.2382003360816" opacity="0.10952541156726428"></circle><circle r="5.513005052228341" cx="224.24469497577672" cy="668.2162547848459" opacity="0.5469576802926328"></circle><circle r="6.771062555540823" cx="221.3088166834002" cy="97.19603527702715" opacity="0.36126155639623725"></circle><circle r="8.072181559673702" cx="197.6482364398382" cy="646.170924317799" opacity="0.3589779117530514"></circle><circle r="8.376666543319596" cx="516.3876005795642" cy="458.0489090308765" opacity="0.34037888515731407"></circle><circle r="9.66583161272005" cx="678.259717011331" cy="771.6335818695559" opacity="0.11143930186652604"></circle><circle r="4.907682417602799" cx="48.622099919700965" cy="608.1205490943871" opacity="0.6391381028068289"></circle><circle r="4.026272754411784" cx="156.49032679215549" cy="10.851865936254065" opacity="0.30222648418550735"></circle><circle r="6.812557450016792" cx="328.4123121495782" cy="43.3785309214078" opacity="0.330140410925257"></circle><circle r="8.297540541476607" cx="664.4236124513205" cy="211.4530657561847" opacity="0.6782392560272587"></circle><circle r="13.8636954738021" cx="37.97702112736968" cy="394.64817313453045" opacity="0.44747908376328893"></circle><circle r="5.205050785819031" cx="787.0179617395332" cy="355.76521650237663" opacity="0.7414491308051624"></circle><circle r="7.143821354675305" cx="423.8435508388072" cy="208.92243098394624" opacity="0.5829033920651139"></circle><circle r="9.099562805396168" cx="205.5341233062382" cy="23.239168283764734" opacity="0.8571827654632358"></circle><circle r="5.721801645596864" cx="207.13486745389542" cy="141.34522985110232" opacity="0.5260456577948001"></circle><circle r="6.493443450346145" cx="781.4198937470127" cy="546.9601801085483" opacity="0.314383765140796"></circle><circle r="5.241074553009612" cx="758.4217229385395" cy="332.40511409153487" opacity="0.7781356380597361"></circle><circle r="6.630760808145389" cx="204.2000364341615" cy="184.33769666951275" opacity="0.9280167210586964"></circle><circle r="5.9085903512567395" cx="323.1747569267291" cy="225.10077425808697" opacity="0.1698585220637001"></circle><circle r="11.215348629865035" cx="157.48173723777248" cy="475.5186561714736" opacity="0.6880466998157986"></circle><circle r="8.150883739123648" cx="567.6919562475807" cy="547.0842780880612" opacity="0.35447316636880377"></circle><circle r="9.159346915988563" cx="506.9513270287448" cy="28.870439211132766" opacity="0.29925836762030833"></circle><circle r="12.133450435735284" cx="646.068354468306" cy="706.5685458337456" opacity="0.9215084747792444"></circle><circle r="3.892016876630367" cx="268.3874809781811" cy="183.12714822483582" opacity="0.6134143551428154"></circle><circle r="6.157831282261522" cx="48.68069096002192" cy="61.70588221389711" opacity="0.34030206726581685"></circle><circle r="6.52340486293033" cx="760.1730432742607" cy="492.02929777786443" opacity="0.5431566964827568"></circle><circle r="11.406742880458168" cx="759.4722219486328" cy="29.674477938287236" opacity="0.42827314755746615"></circle><circle r="7.003157610105269" cx="586.5444678200803" cy="253.64782902691906" opacity="0.19574646769222487"></circle><circle r="9.361638152450054" cx="126.96650207387877" cy="581.6405363883273" opacity="0.9975984115191914"></circle><circle r="5.827644588006086" cx="185.8197014666742" cy="747.9160451740375" opacity="0.18901071551689638"></circle><circle r="5.284677157947269" cx="622.9727107344288" cy="326.99052504922264" opacity="0.1577955469041557"></circle><circle r="4.648580821584509" cx="611.9783158578059" cy="786.7611532311438" opacity="0.4624474278545525"></circle><circle r="5.868369180716665" cx="498.7231799169122" cy="587.4150833160456" opacity="0.5964809782436635"></circle><circle r="4.6269584498324186" cx="352.70751868718753" cy="388.3789448280849" opacity="0.5251387922925452"></circle><circle r="4.252147463290798" cx="307.3042433989732" cy="86.15418399694978" opacity="0.38736172962285365"></circle><circle r="9.08091723527727" cx="704.3958345856674" cy="303.0505998890052" opacity="0.16522551705750094"></circle><circle r="6.110104298282807" cx="446.7189854473702" cy="699.6517596500257" opacity="0.9193803202816541"></circle><circle r="5.8874477387201205" cx="258.0115621478106" cy="760.5372789408436" opacity="0.7736732358946479"></circle><circle r="5.68844070984784" cx="549.2517404465499" cy="205.48477886774225" opacity="0.42782858854425665"></circle><circle r="4.508276198135396" cx="77.964347675892" cy="106.12935728384542" opacity="0.7372568937838216"></circle><circle r="8.260065324401841" cx="290.51377378735395" cy="779.9512104031191" opacity="0.4000111200088653"></circle><circle r="9.680597540957189" cx="778.0947458659846" cy="695.0594841305123" opacity="0.4553278909876084"></circle><circle r="8.886727060141595" cx="318.2605483202055" cy="269.5694765527062" opacity="0.4296941679800864"></circle><circle r="7.271353418158295" cx="404.1914480289219" cy="671.105895581321" opacity="0.1018607319787851"></circle><circle r="7.194067093032858" cx="284.1155779422112" cy="675.5392322897959" opacity="0.8933783548882193"></circle><circle r="7.888345130020667" cx="109.5021853271498" cy="663.9456405498179" opacity="0.18040048202146342"></circle><circle r="5.27461097349172" cx="292.71696183651153" cy="600.0889470768677" opacity="0.5915848207498121"></circle><circle r="6.236077450622563" cx="118.76828334456192" cy="133.9304405377551" opacity="0.749534769628562"></circle><circle r="6.899887053420308" cx="339.45993362144566" cy="96.17015639721855" opacity="0.8752119966116567"></circle><circle r="6.360021936320436" cx="325.91702881945844" cy="353.94636295603436" opacity="0.2965068753423637"></circle><circle r="5.62138266029771" cx="247.4454742366707" cy="157.92842924043268" opacity="0.3464173665006267"></circle><circle r="8.207404462447592" cx="623.1107294338855" cy="266.30691787945153" opacity="0.22887726583078494"></circle><circle r="4.00692228076863" cx="268.86336178083286" cy="621.9425952414775" opacity="0.29162168256767795"></circle><circle r="5.00342432892367" cx="86.47391283027986" cy="234.13023267837926" opacity="0.2773432478617738"></circle><circle r="7.5792083826358265" cx="280.63364074046893" cy="714.6677783776217" opacity="0.14767623037858255"></circle><circle r="11.152905222479532" cx="297.50916805045387" cy="321.56221681974336" opacity="0.36818849247544505"></circle><circle r="6.46402124474568" cx="116.00899408311615" cy="30.625110399833673" opacity="0.9383302019135353"></circle><circle r="9.108702959728225" cx="34.89813886622923" cy="561.5679939171816" opacity="0.5833165075441511"></circle><circle r="5.509450517273322" cx="228.45234990593855" cy="488.0978057030124" opacity="0.7883304254251248"></circle><circle r="8.398812824936691" cx="193.28884438054303" cy="392.6330927902593" opacity="0.9100874482415292"></circle><circle r="5.333431026331605" cx="327.51331830746807" cy="556.0720028293048" opacity="0.9437864551306628"></circle><circle r="5.56439815484827" cx="582.2803060475674" cy="215.25706967574828" opacity="0.5761184061334882"></circle><circle r="7.04055753455509" cx="229.10559315966444" cy="784.7993157885486" opacity="0.13852723552932245"></circle><circle r="5.794494736582553" cx="208.93365435779907" cy="222.9425785768176" opacity="0.2582255967436909"></circle><circle r="9.44102965251113" cx="687.2127514406204" cy="436.9088980733242" opacity="0.5168953700487797"></circle><circle r="6.544291727083105" cx="26.56816085304309" cy="491.00648256725617" opacity="0.3675333224422126"></circle><circle r="8.119394523662649" cx="212.06085531915915" cy="436.2014296175809" opacity="0.6515654047361626"></circle><circle r="5.2912454904462125" cx="20.342002746967356" cy="47.514886726619814" opacity="0.21690109468697355"></circle><circle r="8.456236816944923" cx="119.17581275127766" cy="430.2676579277033" opacity="0.6188498162887667"></circle><circle r="6.948992675821076" cx="692.5443454954892" cy="598.5492610002524" opacity="0.9492209113364181"></circle><circle r="6.021848278721784" cx="222.2849588624497" cy="747.5138636291837" opacity="0.4487282608000802"></circle><circle r="8.608718148006586" cx="114.72662378205972" cy="370.6258414605721" opacity="0.16748690610914047"></circle><circle r="4.777897904312127" cx="161.79031959380004" cy="619.3477429079451" opacity="0.8980053070088041"></circle><circle r="10.85599231570794" cx="523.3526934513785" cy="112.93759892568025" opacity="0.3672924300770488"></circle><circle r="8.919908765734016" cx="358.08623390228814" cy="200.60070158258182" opacity="0.33033039270800413"></circle><circle r="3.9199930696354373" cx="23.569043148420825" cy="751.3977298693002" opacity="0.6958966518408757"></circle><circle r="8.178481368698154" cx="111.5121339103395" cy="90.69868311320657" opacity="0.8056951998100129"></circle><circle r="8.46773627625463" cx="502.6747678937279" cy="321.26647360066266" opacity="0.8090571130995361"></circle><circle r="9.559158004548618" cx="463.6614317016288" cy="147.71011720184615" opacity="0.6054922437795536"></circle><circle r="5.474656724740462" cx="245.6637946417306" cy="218.81157696874564" opacity="0.7685013660573459"></circle><circle r="4.739010794064335" cx="315.55270671546594" cy="395.0858153778304" opacity="0.6852782663483333"></circle><circle r="7.2421588325433515" cx="498.1483957460226" cy="489.7548632983385" opacity="0.6410656351270201"></circle><circle r="6.868492742929563" cx="342.2310146875356" cy="307.6766210420719" opacity="0.1406167249966276"></circle><circle r="7.985924312171512" cx="422.34134937608195" cy="552.8260954883372" opacity="0.4244338605006436"></circle><circle r="7.226490559838492" cx="552.5944859772279" cy="508.5290104825318" opacity="0.5219147955678537"></circle><circle r="6.994023189709107" cx="710.6167307336414" cy="491.1801466924874" opacity="0.8008851043512936"></circle><circle r="6.410702096517298" cx="14.88220498495226" cy="256.3225417067358" opacity="0.5926263962763929"></circle><circle r="4.853393577577573" cx="228.57564285640484" cy="270.5729023118413" opacity="0.5865810041207055"></circle><circle r="7.812998512080831" cx="661.7373729765652" cy="335.1759189820677" opacity="0.8863624549744381"></circle><circle r="9.257018519861658" cx="359.8864987155042" cy="651.6197286720824" opacity="0.6070654399606283"></circle><circle r="8.09279614826075" cx="604.6029829232835" cy="524.4693413321379" opacity="0.8946425666974044"></circle><circle r="7.56193553874115" cx="210.45736013904963" cy="550.1626389316799" opacity="0.3979231253064083"></circle><circle r="8.33038724023834" cx="18.857565225776842" cy="446.8557349332394" opacity="0.3020502434398297"></circle><circle r="9.97238051150406" cx="645.147762596214" cy="427.2940637253733" opacity="0.5827460431021746"></circle><circle r="3.9873944476417122" cx="156.4774495881882" cy="786.396386863666" opacity="0.4209729666562879"></circle><circle r="5.805687831755574" cx="699.2943958548198" cy="533.1803122365977" opacity="0.6966844246456033"></circle><circle r="5.915614460925907" cx="299.4795181114193" cy="193.4672727152897" opacity="0.31937357043402487"></circle><circle r="8.967437758740179" cx="690.5470153098414" cy="675.3721628588959" opacity="0.71654107855846"></circle><circle r="5.5027104360558345" cx="295.59311765867466" cy="529.7370251199789" opacity="0.4649880430933735"></circle><circle r="8.154546376134373" cx="632.4938024432132" cy="649.2424095760551" opacity="0.8550051328351059"></circle><circle r="5.197334710240177" cx="558.6622349368602" cy="783.4423933548895" opacity="0.5791303855724774"></circle><circle r="7.85720798693885" cx="195.87186855102073" cy="254.6584639370218" opacity="0.315745455429244"></circle><circle r="11.933030902669191" cx="137.79753711800788" cy="320.94015894823406" opacity="0.7840230963045257"></circle><circle r="7.62869048253126" cx="83.62061599739484" cy="601.0085724665483" opacity="0.1308939440179209"></circle><circle r="7.037271318784075" cx="299.7769661239717" cy="120.96406777398825" opacity="0.256050260859344"></circle><circle r="3.9823337060325" cx="141.91192411226655" cy="745.7502596972332" opacity="0.4741435407063114"></circle><circle r="6.741347713833577" cx="283.06980525978366" cy="363.28173046048767" opacity="0.9376198991374566"></circle><circle r="4.3104814804662315" cx="195.33534536866281" cy="358.06238301827915" opacity="0.79000002240039"></circle><circle r="4.894131971827377" cx="452.7481151586585" cy="736.6089270351337" opacity="0.6883787839897769"></circle><circle r="4.01376354834785" cx="305.7043574880203" cy="631.953464299832" opacity="0.21142388164095882"></circle><circle r="6.323140950000163" cx="638.765675081736" cy="758.4727517836218" opacity="0.8496088995745669"></circle><circle r="9.047976469307569" cx="361.6958246566327" cy="145.28488694569995" opacity="0.8773875785519928"></circle><circle r="6.9923264413151545" cx="59.42798744952162" cy="720.6175996162242" opacity="0.6671646088460185"></circle><circle r="5.676996805165321" cx="25.871117421245934" cy="783.4698201131285" opacity="0.36708265865819656"></circle><circle r="3.580722383599819" cx="669.9911021238995" cy="521.2997184884449" opacity="0.3483099458139739"></circle><circle r="9.125493841682632" cx="592.6501211922189" cy="718.1572937967445" opacity="0.5173906475709243"></circle><circle r="7.216455613425893" cx="464.4607879542045" cy="231.99494280968338" opacity="0.1694412281090003"></circle><circle r="4.814667731019497" cx="399.6954990357015" cy="115.02421305676992" opacity="0.4541212203959675"></circle><circle r="6.2416078854463795" cx="120.18280396023549" cy="623.6254020294625" opacity="0.16551248134020954"></circle><circle r="6.142297099922546" cx="594.9448104963457" cy="442.64700131442174" opacity="0.8649550361392906"></circle><circle r="5.728487894012371" cx="767.051218901309" cy="294.4250806440829" opacity="0.22456962307949585"></circle><circle r="10.319754016916942" cx="657.0178732820962" cy="289.8048976378447" opacity="0.9702201834802076"></circle><circle r="4.828752851233536" cx="170.0086023037096" cy="718.7516144575842" opacity="0.2584778580762058"></circle><circle r="8.933425619116688" cx="478.0713890788931" cy="625.2058392584164" opacity="0.35642709670865613"></circle><circle r="4.036975075487263" cx="786.6180916035722" cy="472.61792229250324" opacity="0.7707066971020962"></circle><circle r="10.81241169872418" cx="601.5464105497132" cy="160.84611674439805" opacity="0.31395993884731466"></circle><circle r="5.603322347539311" cx="624.8213919204305" cy="39.62599464567766" opacity="0.3522600371824445"></circle><circle r="8.416489206569619" cx="730.453057597118" cy="442.85572930294467" opacity="0.2681122481385369"></circle><circle r="5.667915882858699" cx="373.97188494602875" cy="82.83853885405996" opacity="0.1442425779115606"></circle><circle r="4.021347892543767" cx="15.188540844608548" cy="161.4810250454168" opacity="0.9468057230261138"></circle><circle r="4.688978595338005" cx="673.4386413207" cy="559.8944498511577" opacity="0.3688414849330919"></circle><circle r="9.443772015045028" cx="310.3942866659083" cy="156.31112548008846" opacity="0.6297041375328231"></circle><circle r="6.696675337561448" cx="71.8108046295103" cy="200.00764363703433" opacity="0.36606880249382934"></circle><circle r="8.470049546490722" cx="495.20139588664034" cy="527.7300621075166" opacity="0.2533172751614431"></circle><circle r="11.05490062793844" cx="450.8133280908036" cy="379.57054948063956" opacity="0.7250347464760599"></circle><circle r="7.3429780641104045" cx="241.6651656051313" cy="707.8018657535332" opacity="0.7215016836273862"></circle><circle r="4.848975005651202" cx="78.16426624590895" cy="639.1586131580096" opacity="0.23111760493626277"></circle><circle r="9.638791354593796" cx="760.3526817131319" cy="607.3791158054846" opacity="0.15190462145748887"></circle><circle r="8.653727485191439" cx="590.8943510130017" cy="668.4248919280416" opacity="0.8473991515788762"></circle><circle r="8.433377471613415" cx="387.73247553397294" cy="558.3116012696815" opacity="0.7888712130464903"></circle><circle r="6.115456678963603" cx="459.28929343617153" cy="534.8796471172565" opacity="0.48509514032847734"></circle><circle r="10.031845837418947" cx="772.4588418863541" cy="415.27762701105837" opacity="0.3784087816714249"></circle><circle r="7.561462892065862" cx="548.6905526152411" cy="41.26261707684834" opacity="0.14653470324644155"></circle><circle r="6.4261463517570325" cx="734.8351220281426" cy="531.1160870620677" opacity="0.6230065895268307"></circle><circle r="8.554409737666127" cx="25.184323621932414" cy="323.0937323508931" opacity="0.8997165917304174"></circle><circle r="6.779728031529512" cx="239.17909331776426" cy="621.8475890088528" opacity="0.3175005292726544"></circle><circle r="7.355631421135731" cx="75.16534314109468" cy="364.5337348344149" opacity="0.13764114913205353"></circle><circle r="8.036578105148466" cx="725.2484848283658" cy="156.26118637740714" opacity="0.6973917498259479"></circle><circle r="6.23664574417764" cx="323.53174660444313" cy="685.6010524098708" opacity="0.6384329739004608"></circle><circle r="3.6489224251508645" cx="202.9211024609713" cy="722.0160277053351" opacity="0.28253568268999435"></circle><circle r="4.702900919105471" cx="240.82573312187" cy="251.04137195832033" opacity="0.4265633694645137"></circle><circle r="5.959966119553063" cx="183.73577248945773" cy="327.5291668456962" opacity="0.1953108057068128"></circle><circle r="4.64217251750997" cx="115.92043815120176" cy="262.3956897596503" opacity="0.734657342860149"></circle><circle r="5.541923444789157" cx="35.43670624459444" cy="205.56396375864887" opacity="0.2875253845712691"></circle><circle r="6.757061907057639" cx="332.78664923601883" cy="505.5247982620283" opacity="0.27851459815318025"></circle><circle r="6.140847826149491" cx="14.470351846137184" cy="629.3317403701222" opacity="0.21772079348318873"></circle><circle r="7.12958023249951" cx="438.0887427533679" cy="618.9600918248353" opacity="0.6570694315010334"></circle><circle r="6.358645047729743" cx="585.6243297069997" cy="329.5470132693151" opacity="0.4101669286625915"></circle><circle r="10.802146917004611" cx="695.1085313332828" cy="21.613550652650574" opacity="0.5563281612836425"></circle><circle r="3.3371056137402606" cx="187.49111858804756" cy="777.6634426774845" opacity="0.35108051488259306"></circle><circle r="6.917795050160576" cx="483.8995750269423" cy="85.64637253538719" opacity="0.911594189184853"></circle><circle r="5.467633478377652" cx="155.6075847502665" cy="526.158955526635" opacity="0.6923510386400622"></circle><circle r="5.129486175253947" cx="319.49473794869647" cy="656.7374746288045" opacity="0.18126292018311596"></circle><circle r="7.9381496472362665" cx="98.17545044816953" cy="727.0774127965012" opacity="0.20951797382300438"></circle><circle r="8.677331578570897" cx="294.70896927" cy="56.69163487123808" opacity="0.9323262482805407"></circle><circle r="7.218318326752549" cx="740.2445233197698" cy="370.19491469185033" opacity="0.5913997937295085"></circle><circle r="4.598324658116685" cx="208.01149320172388" cy="65.87895015971647" opacity="0.469155905669545"></circle><circle r="7.372749730903651" cx="464.47274673359686" cy="46.3427368376168" opacity="0.35179714427366093"></circle><circle r="7.292679355116471" cx="646.0348919273498" cy="607.098757824486" opacity="0.14670454119023474"></circle><circle r="8.974691892863579" cx="66.62337647801431" cy="677.5362406879827" opacity="0.5583701529683277"></circle><circle r="10.047303151295203" cx="686.8222088116604" cy="180.9690711956429" opacity="0.7044647528782054"></circle><circle r="7.032385606165333" cx="591.3478927309072" cy="756.2930085974585" opacity="0.33561413751314884"></circle><circle r="12.862983413559688" cx="105.7617215457071" cy="484.8340604909618" opacity="0.3704388075716555"></circle><circle r="8.955416570159535" cx="498.4029454160791" cy="682.1381405156573" opacity="0.36524700856854353"></circle><circle r="5.934261730089153" cx="85.1884237063182" cy="287.03728880487387" opacity="0.8926301795788383"></circle><circle r="5.1742860763713345" cx="199.57593235576655" cy="691.0217179401652" opacity="0.9368963784845271"></circle><circle r="6.745806167649133" cx="377.7412976691714" cy="436.2144699161797" opacity="0.486617005993527"></circle><circle r="4.699410613245569" cx="253.2364643757165" cy="662.437727007624" opacity="0.9669090530581042"></circle><circle r="6.3644185716882244" cx="758.0420070047913" cy="192.15720175242268" opacity="0.524480364273665"></circle><circle r="12.429376834763396" cx="538.3028111175545" cy="640.5916400227635" opacity="0.8298659942965866"></circle><circle r="10.68531429880131" cx="373.32148507254954" cy="257.34199569852285" opacity="0.902487973515129"></circle><circle r="7.124735394370072" cx="639.9590599278408" cy="553.3714215389332" opacity="0.7209924030862437"></circle><circle r="9.315834245238989" cx="444.5817147178272" cy="464.81451230004086" opacity="0.5949253125603525"></circle><circle r="8.360842924025368" cx="47.99230602748579" cy="251.7966839123674" opacity="0.8850929039997896"></circle><circle r="9.888056656293537" cx="149.73350045384495" cy="382.74218375749734" opacity="0.8310629534858365"></circle><circle r="4.984736797555458" cx="245.76063745976862" cy="573.6428494808761" opacity="0.8874378077493664"></circle><circle r="6.69126621752706" cx="552.1005542685778" cy="442.33432497267097" opacity="0.8200432494037526"></circle><circle r="5.816926623006697" cx="234.42567334696687" cy="321.6747354369634" opacity="0.7892093314087516"></circle><circle r="6.6233175152420625" cx="434.21712968875846" cy="292.5418035535785" opacity="0.28693422841961025"></circle><circle r="5.743784073404739" cx="285.2440883902248" cy="228.93282661571905" opacity="0.6449992817648834"></circle><circle r="9.651131455512871" cx="779.8316465956937" cy="78.3578208839938" opacity="0.9268801183151487"></circle><circle r="4.146711133512007" cx="611.3734279143314" cy="10.371917732150141" opacity="0.5233879465975788"></circle><circle r="6.1493463861101" cx="446.466183105645" cy="14.257179252296057" opacity="0.42482390620115695"></circle><circle r="9.16209068770651" cx="558.2742980200175" cy="597.8937558548464" opacity="0.616309401437827"></circle><circle r="6.172274369918277" cx="252.66837367841296" cy="124.85275431709711" opacity="0.8613741689788298"></circle><circle r="10.439996750281631" cx="410.8777755773728" cy="406.19145553477256" opacity="0.9858105016894521"></circle><circle r="8.16212774793668" cx="693.6438644531771" cy="387.88002457815986" opacity="0.8410729861052627"></circle><circle r="5.445639977740826" cx="259.2597958595126" cy="467.484876317745" opacity="0.37432264370057433"></circle><circle r="5.479810707484936" cx="86.98888691884916" cy="60.76085527663301" opacity="0.6559663226754723"></circle><circle r="10.699536408420807" cx="499.46065933380044" cy="382.10956648920677" opacity="0.6469252878298205"></circle><circle r="6.625478548974425" cx="724.6040711834378" cy="769.0483042814127" opacity="0.5757645900718771"></circle><circle r="7.5146432529412195" cx="606.7969157769595" cy="391.6347216435321" opacity="0.5779207153392435"></circle><circle r="7.815712595596203" cx="367.5660136683693" cy="357.86886695939705" opacity="0.7641403460666661"></circle><circle r="4.118099331874149" cx="412.85777569109445" cy="595.7249078369989" opacity="0.35384276945953486"></circle><circle r="8.828864444307822" cx="742.0112915215283" cy="661.1501208549164" opacity="0.7839263158559724"></circle><circle r="8.021459012994812" cx="521.3294450205046" cy="779.8958082994902" opacity="0.43431279514252374"></circle><circle r="6.711018799122858" cx="337.97910592388354" cy="713.3690644951402" opacity="0.7889666325560022"></circle><circle r="4.4476658990783" cx="11.2221385170233" cy="199.55148361958584" opacity="0.3435049938722352"></circle><circle r="5.770607654063665" cx="284.4252407709773" cy="568.2347550485744" opacity="0.9639297889076052"></circle><circle r="8.78348689640646" cx="475.4335665617649" cy="433.7940468380483" opacity="0.9602224175509282"></circle><circle r="8.67212509923223" cx="585.884423798924" cy="48.069207353371475" opacity="0.2773268372801051"></circle><circle r="6.9198840704038025" cx="544.7963393326842" cy="695.1534514365462" opacity="0.6753126378471138"></circle><circle r="7.0919375864229375" cx="448.4189058190701" cy="580.4188743472961" opacity="0.18154504168256344"></circle><circle r="6.114733505599729" cx="254.25857830194067" cy="522.138975883726" opacity="0.5679936050363628"></circle><circle r="7.832207829910234" cx="435.7160895937793" cy="107.74111852492618" opacity="0.6789229216289165"></circle><circle r="6.092666721253853" cx="644.9657558804016" cy="374.924916161321" opacity="0.153674762628462"></circle><circle r="6.084405836332204" cx="405.173995201693" cy="351.97025605091886" opacity="0.11979772766703278"></circle><circle r="5.647273710721827" cx="782.9685622362733" cy="645.4802393741361" opacity="0.6943200060849578"></circle><circle r="5.993524847889118" cx="110.51918161727339" cy="174.34380121229668" opacity="0.8811351905503398"></circle><circle r="6.037236792268095" cx="208.3750821617648" cy="293.9036215402914" opacity="0.28820844702887927"></circle><circle r="8.45395593842644" cx="168.65458172381008" cy="225.5552422137326" opacity="0.1966020068857825"></circle><circle r="4.6791240551160485" cx="524.5201236924454" cy="416.77746364303187" opacity="0.36860303018163365"></circle><circle r="9.953333747717991" cx="602.8729951515132" cy="586.6571094819906" opacity="0.11874387077091753"></circle><circle r="6.041635165097498" cx="17.602088026690424" cy="718.467723827997" opacity="0.811171899273692"></circle><circle r="10.101816586257332" cx="549.5567470985175" cy="358.49204367582905" opacity="0.42321127214103804"></circle><circle r="10.039499809955952" cx="385.97657324720717" cy="310.70363634173657" opacity="0.13339901434462578"></circle><circle r="10.577115205682794" cx="169.2371353303731" cy="576.6779697319728" opacity="0.9759509924555095"></circle><circle r="5.319895368874822" cx="348.1333387107819" cy="778.6796375994593" opacity="0.1642686454170207"></circle><circle r="6.329149758481571" cx="161.39571801329387" cy="686.334819327976" opacity="0.7337301725318831"></circle><circle r="6.5210824152152655" cx="197.06440094463647" cy="469.2000722894277" opacity="0.32454574686178606"></circle><circle r="10.322646202532013" cx="557.4286671950063" cy="286.2273956416729" opacity="0.6939578513338467"></circle><circle r="5.424812571042538" cx="548.1710022440991" cy="742.9327218860587" opacity="0.2308917371401452"></circle><circle r="8.697367833175903" cx="592.5348966225598" cy="95.3634302258025" opacity="0.5165043151151969"></circle><circle r="7.015192859999377" cx="721.8185406524435" cy="213.61752110297695" opacity="0.5621593433646124"></circle><circle r="4.133702222741131" cx="112.71959893910237" cy="762.1753467269007" opacity="0.44421117106695973"></circle><circle r="7.984479863010753" cx="745.3737871016681" cy="570.3813468842551" opacity="0.4183775355566237"></circle><circle r="6.070129043931724" cx="154.8706513171352" cy="41.19783314753952" opacity="0.3218864221639244"></circle><circle r="6.322655777736625" cx="69.82457471539817" cy="781.3382909518169" opacity="0.8086973489435743"></circle><circle r="5.5387337862095185" cx="37.423290255533665" cy="649.8714309795539" opacity="0.10821634923013682"></circle><circle r="8.688410057751675" cx="612.9627790264586" cy="478.2757087131546" opacity="0.3364920772106889"></circle><circle r="6.5185827068432065" cx="457.0363728344314" cy="659.5205575506429" opacity="0.29156686561784484"></circle><circle r="10.155053472622939" cx="266.0557167456112" cy="85.60507112787569" opacity="0.11766935722500341"></circle><circle r="8.913466383232159" cx="79.11691882267762" cy="323.130993913554" opacity="0.5961008407148245"></circle><circle r="5.701452205152675" cx="666.307848069375" cy="250.14128664048093" opacity="0.8580417046490714"></circle><circle r="6.178780532237389" cx="330.67604286159445" cy="424.0573225425901" opacity="0.8072745221622254"></circle><circle r="7.539424412201592" cx="656.3971749920322" cy="487.8097349935383" opacity="0.18111530289931582"></circle><circle r="8.262439932092846" cx="260.261581991121" cy="298.31895794222015" opacity="0.7814702339647243"></circle><circle r="6.509205225083829" cx="557.7116189797024" cy="475.8864372070682" opacity="0.6248487911933721"></circle><circle r="8.908073647831653" cx="425.513872994366" cy="61.79191365544549" opacity="0.871514798837251"></circle><circle r="9.00028616713141" cx="697.2318925383711" cy="636.3530832149798" opacity="0.6868056742370436"></circle><circle r="8.925494824578578" cx="320.9637771809187" cy="746.8092227258883" opacity="0.9028883916533849"></circle><circle r="7.505889078886207" cx="424.8603357638815" cy="256.40334405501585" opacity="0.3670627184501074"></circle><circle r="5.360709611520054" cx="195.19295851447973" cy="514.4800239607995" opacity="0.3544671385279168"></circle><circle r="6.149432631035678" cx="647.335213153115" cy="158.28478108174608" opacity="0.6905398447221752"></circle><circle r="7.219358451919367" cx="138.4490185748776" cy="715.2500554075062" opacity="0.9718355173841783"></circle><circle r="6.009152782139836" cx="498.375485248255" cy="755.1090278393224" opacity="0.7356416058407595"></circle><circle r="10.706431928968389" cx="396.7995630657889" cy="30.345958715625088" opacity="0.2951552254170562"></circle><circle r="7.244954081805462" cx="446.5154807125666" cy="778.9036207087863" opacity="0.7614373306543709"></circle><circle r="2.8624082172119842" cx="261.90983531625164" cy="238.7184749828707" opacity="0.6993393651840437"></circle><circle r="10.386268814363017" cx="774.7713705159276" cy="244.4272466768186" opacity="0.5719760116816128"></circle><circle r="5.367189986297224" cx="415.01923351734996" cy="518.0651530176874" opacity="0.11021625802701708"></circle><circle r="8.114723534602973" cx="364.1578944282779" cy="529.2658498872553" opacity="0.8775620900336384"></circle><circle r="6.2841400405927335" cx="84.77519459126383" cy="564.1124504682393" opacity="0.35402231913702986"></circle><circle r="7.818897844204386" cx="387.6734134755717" cy="715.7304406464159" opacity="0.5112927779345794"></circle><circle r="5.559148732980058" cx="322.5092210497021" cy="457.0163106031273" opacity="0.17576492934413857"></circle><circle r="5.017840117836958" cx="298.63748778069737" cy="14.468780459352725" opacity="0.456244317885626"></circle><circle r="4.522477211462617" cx="15.267249940165625" cy="592.6921489127201" opacity="0.20037141385530666"></circle><circle r="9.464584544962293" cx="694.6493403700977" cy="720.1073963021224" opacity="0.8048762703668869"></circle><circle r="8.940779467366898" cx="500.20647444097693" cy="191.19658918022455" opacity="0.7074108463329848"></circle><circle r="6.348084191881134" cx="277.88174951725125" cy="268.9030332232043" opacity="0.5966755751556724"></circle><circle r="4.593240062394106" cx="155.44845030516407" cy="656.0180493792426" opacity="0.30890477020002705"></circle><circle r="9.658473064079447" cx="689.9952890483613" cy="127.61411950603514" opacity="0.8537358125033665"></circle><circle r="5.20495988457614" cx="282.67747610451784" cy="647.6207842195982" opacity="0.8455987060296438"></circle><circle r="10.787507704076601" cx="399.4623566515905" cy="769.0193620397586" opacity="0.5436702482759236"></circle><circle r="5.867749534598699" cx="238.46253887422364" cy="405.16830751588435" opacity="0.864822342777678"></circle><circle r="4.9685926679107535" cx="280.97306307434144" cy="401.75876414567347" opacity="0.3892520944741025"></circle><circle r="7.301836617494416" cx="380.36922850622545" cy="602.3667829942503" opacity="0.9554313669440588"></circle><circle r="11.49185008249917" cx="716.4168711228144" cy="257.1715484306977" opacity="0.7633470221094447"></circle><circle r="5.877485688993861" cx="170.8358127030885" cy="424.7502216101732" opacity="0.4639590187660594"></circle><circle r="9.0116456200404" cx="655.7443138858885" cy="52.150956306280655" opacity="0.7493768838491449"></circle><circle r="6.855419083199517" cx="773.2406122662131" cy="779.0931078676651" opacity="0.34421825918450255"></circle><circle r="7.694023962511753" cx="410.22238540891084" cy="480.72497016084947" opacity="0.8688095062285783"></circle><circle r="8.541333899949414" cx="172.5908889094629" cy="287.8087018556123" opacity="0.9036038482394169"></circle><circle r="7.166272903612478" cx="18.334494273994633" cy="123.07944910119456" opacity="0.7470471030768128"></circle><circle r="5.184175727924093" cx="702.6278149794447" cy="345.0326273571171" opacity="0.46123849887470825"></circle><circle r="4.612704042311531" cx="23.071248029706155" cy="13.60134722724565" opacity="0.5928044608491444"></circle><circle r="3.253711480101479" cx="164.76428699566424" cy="761.9423106161114" opacity="0.5336888303188316"></circle><circle r="6.323876029531254" cx="234.4749413535276" cy="193.3015636543121" opacity="0.48151612267030297"></circle><circle r="3.933106586601926" cx="199.87344856409695" cy="790.0783696750398" opacity="0.8528082675094628"></circle><circle r="8.167307587755705" cx="67.60151616930139" cy="141.8787405360755" opacity="0.5086958029512019"></circle><circle r="6.530565442186079" cx="353.65816805058523" cy="581.4865525556063" opacity="0.5941604377095233"></circle><circle r="8.729441086509897" cx="207.6992360943075" cy="600.4081628047431" opacity="0.45451918544498493"></circle><circle r="12.227041011672002" cx="65.56380362292418" cy="519.087193837058" opacity="0.479514997910667"></circle><circle r="4.561411393135038" cx="122.22197631995455" cy="786.1809295006689" opacity="0.4870335797944261"></circle></g></svg>