<svg xmlns="http://www.w3.org/2000/svg" version="1.1" xmlns:xlink="http://www.w3.org/1999/xlink" xmlns:svgjs="http://svgjs.dev/svgjs" viewBox="0 0 800 800"><defs><filter id="uuunion-blur" x="-100%" y="-100%" width="400%" height="400%" color-interpolation-filters="sRGB">
        <feGaussianBlur in="SourceGraphic" stdDeviation="7.5 0" result="blur"></feGaussianBlur>
        <feDropShadow stdDeviation="12.307692307692308" in="blur" dx="10" dy="10" flood-color="hsl(0, 0%, 0%)" flood-opacity="0.25" x="0%" y="0%" width="100%" height="100%"></feDropShadow>
      </filter><filter id="uuunion-blur2" x="-100%" y="-100%" width="400%" height="400%" color-interpolation-filters="sRGB">
        <feGaussianBlur in="SourceGraphic" stdDeviation="7.5 0" result="blur"></feGaussianBlur>
        <feDropShadow stdDeviation="12.307692307692308" in="blur" dx="-10" dy="-10" flood-color="hsl(0, 0%, 0%)" flood-opacity="0.25" x="0%" y="0%" width="100%" height="100%"></feDropShadow>
      </filter><linearGradient gradientTransform="rotate(0, 0.5, 0.5)" x1="50%" y1="0%" x2="50%" y2="100%" id="uuunion-grad"><stop stop-color="hsl(151, 100%, 20%)" offset="10%"></stop><stop stop-color="hsl(0, 0%, 0%)" offset="90%"></stop></linearGradient><linearGradient gradientTransform="rotate(135, 0.5, 0.5)" x1="50%" y1="0%" x2="50%" y2="100%" id="uuunion-grad2"><stop stop-color="hsl(151, 100%, 20%)" offset="25%"></stop><stop stop-color="hsl(0, 0%, 0%)" offset="100%"></stop></linearGradient><linearGradient gradientTransform="rotate(333, 0.5, 0.5)" x1="50%" y1="0%" x2="50%" y2="100%" id="uuunion-grad3"><stop stop-color="hsl(151, 100%, 20%)" offset="0%"></stop><stop stop-color="hsl(0, 0%, 0%)" offset="75%"></stop></linearGradient></defs><path d="M-78.99 -83.66Q-64.35 -80.47 -49.71 -77.22 -35.07 -74.35 -20.43 -72.27 -5.78 -71.26 8.85 -71.47 23.49 -72.86 38.13 -75.24 52.77 -78.28 67.41 -81.56 82.06 -84.63 96.7 -87.05 111.34 -88.48 125.98 -88.74 140.62 -87.79 155.27 -85.75 169.91 -82.91 184.55 -79.66 199.19 -76.47 213.83 -73.76 228.48 -71.92 243.12 -71.2 257.76 -71.7 272.4 -73.36 287.04 -75.94 301.69 -79.08 316.33 -82.35 330.97 -85.29 345.61 -87.5 360.25 -88.66 374.9 -88.62 389.54 -87.38 404.18 -85.11 418.82 -82.13 433.46 -78.86 448.11 -75.74 462.75 -73.22 477.39 -71.63 492.03 -71.21 506.67 -72.01 521.32 -73.92 535.96 -76.67 550.6 -79.89 565.24 -83.12 579.88 -85.91 594.53 -87.89 609.17 -88.76 623.81 -88.42 638.45 -86.91 653.09 -84.43 667.74 -81.34 682.38 -78.06 697.02 -75.05 711.66 -72.73 726.3 -71.42 740.95 -71.29 755.59 -72.38 770.23 -74.53 784.87 -77.43 799.51 -80.7 814.16 -83.86 828.8 -86.49 843.44 -88.21 858.08 -88.79 855.93 -74.02 857.12 -59.24 861.5 -44.47 868.44 -29.69 876.99 -14.92 885.96 -0.14 894.1 14.62 900.27 29.4 903.63 44.17 903.71 58.95 900.49 73.72 894.42 88.5 886.34 103.27 877.39 118.05 868.79 132.82 861.76 147.6 857.25 162.37 855.91 177.15 857.92 191.92 862.99 206.7 870.43 221.47 879.2 236.25 888.07 251.02 895.83 265.8 901.38 280.57 903.96 295.35 903.22 310.12 899.24 324.9 892.59 339.67 884.19 354.45 875.2 369.22 866.88 384 860.39 398.77 856.62 413.55 856.1 428.32 858.9 443.1 864.63 457.87 872.5 472.65 881.41 487.42 890.12 502.2 897.43 516.97 902.31 531.75 904.09 546.52 902.53 561.3 897.83 576.07 890.65 590.85 881.99 605.62 873.06 620.4 865.09 635.17 859.19 649.95 856.18 664.72 856.48 679.5 860.05 694.27 866.4 709.05 874.63 723.82 883.61 738.6 892.08 753.37 898.88 768.15 903.05 782.92 904.02 797.7 901.65 812.47 896.27 827.25 888.62 842.02 879.78 856.8 864.79 858.33 849.79 862.88 834.79 869.81 819.8 878.15 804.8 886.75 789.8 894.41 774.81 900.07 759.81 902.93 744.81 902.61 729.82 899.15 714.82 893.02 699.82 885.09 684.83 876.44 669.83 868.29 654.83 861.77 639.84 857.78 624.84 856.87 609.84 859.19 594.85 864.39 579.85 871.76 564.85 880.28 549.86 888.75 534.86 896.01 519.87 901.05 504.87 903.16 489.87 902.04 474.88 897.87 459.88 891.21 444.88 882.99 429.89 874.35 414.89 866.5 399.89 860.53 384.9 857.26 369.9 857.15 354.9 860.21 339.91 866.03 324.91 873.78 309.91 882.4 294.92 890.69 279.92 897.49 264.92 901.85 249.93 903.18 234.93 901.29 219.94 896.44 204.94 889.3 189.94 880.87 174.95 872.32 159.95 864.83 144.95 859.45 129.96 856.93 114.96 857.61 99.96 861.41 84.97 867.79 69.97 875.86 54.97 884.51 39.98 892.53 24.98 898.81 9.98 902.47 -5 903.01 -20 900.35 -35 894.87 -49.99 887.31 -64.99 878.74 -79.99 870.34 -80.39 855.43 -80.74 840.53 -80.98 825.62 -81.09 810.71 -81.05 795.81 -80.86 780.9 -80.55 766 -80.16 751.09 -79.75 736.18 -79.37 721.28 -79.08 706.37 -78.92 691.46 -78.91 676.56 -79.05 661.65 -79.31 646.74 -79.68 631.84 -80.09 616.93 -80.48 602.03 -80.81 587.12 -81.02 572.21 -81.09 557.31 -81.01 542.4 -80.79 527.49 -80.46 512.59 -80.06 497.68 -79.65 482.77 -79.29 467.87 -79.03 452.96 -78.9 438.06 -78.93 423.15 -79.1 408.24 -79.4 393.34 -79.78 378.43 -80.19 363.52 -80.57 348.62 -80.87 333.71 -81.05 318.8 -81.09 303.9 -80.97 288.99 -80.72 274.09 -80.36 259.18 -79.96 244.27 -79.56 229.37 -79.22 214.46 -78.99 199.55 -78.9 184.65 -78.96 169.74 -79.16 154.83 -79.48 139.93 -79.88 125.02 -80.28 110.12 -80.65 95.21 -80.93 80.3 -81.08 65.4 -81.07 50.49 -80.92 35.58 -80.64 20.68 -80.27 5.77 -79.86 -9.13 -79.47 -24.03 -79.15 -38.94 -78.95 -53.84 -78.9 -68.75 -78.99 -83.66" fill="url(#uuunion-grad)"></path><path d="M-78.99 -83.66Q-78.9 -68.75 -78.95 -53.84 -79.15 -38.94 -79.47 -24.03 -79.86 -9.13 -80.27 5.77 -80.64 20.68 -80.92 35.58 -81.07 50.49 -81.08 65.4 -80.93 80.3 -80.65 95.21 -80.28 110.12 -79.88 125.02 -79.48 139.93 -79.16 154.83 -78.96 169.74 -78.9 184.65 -78.99 199.55 -79.22 214.46 -79.56 229.37 -79.96 244.27 -80.36 259.18 -80.72 274.09 -80.97 288.99 -81.09 303.9 -81.05 318.8 -80.87 333.71 -80.57 348.62 -80.19 363.52 -79.78 378.43 -79.4 393.34 -69.54 397.14 -59.68 401.13 -49.82 405.04 -39.97 408.64 -30.11 411.7 -20.25 414.04 -1.78 415.86 1.41 415.98 13.89 408.62 26.48 399.86 39.18 389.94 51.98 379.23 64.88 368.16 77.87 357.21 90.92 346.83 104.03 337.39 117.16 329.21 130.28 322.44 143.38 317.12 156.41 313.14 169.35 310.27 182.18 308.17 194.86 306.44 207.38 304.62 219.73 302.31 231.88 299.12 243.84 294.78 255.6 289.12 267.17 282.1 278.57 273.8 289.82 264.45 300.94 254.36 311.97 243.9 322.93 233.48 333.88 223.5 344.86 214.32 355.91 206.2 367.08 199.31 378.41 193.69 389.93 189.27 401.71 185.84 413.75 183.13 426.09 180.79 438.75 178.44 451.74 175.69 465.06 172.23 478.7 167.8 492.65 162.23 506.89 155.48 521.36 147.61 536.04 138.8 550.87 129.31 565.8 119.45 580.76 109.58 595.69 100.05 610.52 91.17 625.19 83.17 639.64 76.21 653.79 70.35 667.61 65.52 681.03 61.57 694.03 58.28 706.57 55.33 718.64 52.42 730.22 49.22 741.33 45.44 751.99 40.85 762.22 35.32 772.08 28.79 781.62 21.3 790.9 12.99 800 4.08 790.67 -13.52 783.11 -31.13 778.72 -48.74 778.35 -66.34 782.05 -83.95 789.13 -101.56 795.46 -126.77 777.63 -132.73 762.58 -132.1 747.54 -132.55 732.49 -134.02 717.45 -136.31 702.41 -139.11 687.36 -142.03 672.32 -144.67 657.28 -146.67 642.23 -147.75 627.19 -147.77 612.15 -146.72 597.1 -144.75 582.06 -142.12 567.02 -139.21 551.97 -136.4 536.93 -134.09 521.89 -132.58 506.84 -132.1 491.8 -132.69 476.76 -134.3 461.71 -136.68 446.67 -139.52 431.62 -142.42 416.58 -144.99 401.54 -146.88 386.49 -147.82 371.45 -147.68 356.41 -146.5 341.36 -144.41 326.32 -141.73 311.28 -138.8 296.23 -136.04 281.19 -133.82 266.15 -132.45 251.1 -132.12 236.06 -132.86 221.02 -134.59 205.97 -137.05 190.93 -139.93 175.88 -142.81 160.84 -145.3 145.8 -147.07 130.75 -147.86 115.71 -147.58 100.67 -146.25 85.62 -144.07 70.58 -141.32 55.54 -138.4 40.49 -135.69 25.45 -133.57 10.41 -132.34 -4.63 -132.16 -19.67 -133.05 -34.71 -134.89 -49.76 -137.44 -64.8 -140.34 -79.84 -143.19 -94.89 -145.6 -109.93 -147.24 -124.98 -147.89 -134.2 -134.63 -116.2 -118.15 -106.74 -110.12 -97.4 -101.67 -88.15 -92.82 -78.99 -83.66" fill="url(#uuunion-grad2)" filter="url(#uuunion-blur)"></path><path d="M788.03 406.52Q797.88 402.71 807.74 398.72 817.6 394.82 827.46 391.23 837.31 388.19 847.17 385.89 858.71 391.61 856.62 413.55 856.1 428.32 858.9 443.1 864.63 457.87 872.5 472.65 881.41 487.42 890.12 502.2 897.43 516.97 902.31 531.75 904.09 546.52 902.53 561.3 897.83 576.07 890.65 590.85 881.99 605.62 873.06 620.4 865.09 635.17 859.19 649.95 856.18 664.72 856.48 679.5 860.05 694.27 866.4 709.05 874.63 723.82 883.61 738.6 892.08 753.37 898.88 768.15 903.05 782.92 904.02 797.7 901.65 812.47 896.27 827.25 888.62 842.02 879.78 856.8 866.02 858.09 852.26 861.95 838.49 867.92 824.73 875.32 810.97 883.26 797.21 890.82 783.44 897.1 769.68 901.39 755.92 903.16 742.16 902.22 728.39 898.67 714.63 892.93 700.87 885.68 687.11 877.75 673.35 870.09 659.58 863.6 645.82 859.02 632.06 856.91 618.3 857.5 604.53 860.73 590.77 866.22 577.01 873.32 563.25 881.21 549.48 888.96 535.72 895.65 521.96 900.51 508.2 902.96 494.43 902.72 480.67 899.82 466.91 894.59 453.15 887.65 439.38 879.81 425.62 871.99 411.86 865.11 398.1 859.98 384.33 857.2 370.57 857.08 356.81 859.66 343.05 864.62 329.28 871.38 315.52 879.15 301.76 887.03 288 894.07 274.23 899.47 260.47 902.58 246.71 903.05 232.95 900.81 219.19 896.13 205.42 889.55 191.66 881.86 177.9 873.95 164.14 866.75 150.37 861.1 136.61 857.67 122.85 856.85 109.09 858.75 95.32 863.14 81.56 869.51 67.8 877.1 54.04 885.04 40.27 892.38 26.51 898.28 5.99 897.53 -0.54 882.89 -0.34 872.74 -0.18 862.59 -0.07 852.44 -0.02 842.29 0.18 827.07 0.91 822 13.61 814.59 26.23 805.18 38.75 794.1 51.15 781.81 63.45 768.92 75.62 756.07 87.68 743.9 99.63 732.97 111.49 723.72 123.28 716.44 135.01 711.19 146.72 707.87 158.43 706.17 170.18 705.65 181.99 705.73 193.9 705.81 205.93 705.27 218.12 703.56 230.48 700.27 243.04 695.11 255.81 688 268.8 679.04 282 668.51 295.42 656.84 309.03 644.56 322.83 632.26 336.77 620.52 350.84 609.87 364.99 600.72 379.17 593.33 393.35 587.81 407.47 584.05 421.49 581.81 435.36 580.68 449.02 580.16 462.45 579.68 475.59 578.7 488.43 576.7 500.93 573.29 513.07 568.2 524.87 561.35 536.3 552.81 547.4 542.82 558.18 531.74 568.67 520.07 578.92 508.33 588.97 497.04 598.88 486.7 608.72 477.68 618.56 470.24 628.45 464.48 638.48 460.32 648.71 457.56 659.2 455.84 670.03 454.71 681.24 453.67 692.89 452.22 705 449.9 717.6 446.34 730.71 441.29 744.33 434.66 758.44 426.5 773.02 417.01 788.03 406.52 788.03 406.52 788.03 406.52" fill="url(#uuunion-grad3)" filter="url(#uuunion-blur2)"></path></svg>